. 
 
http://www.torrenting.com          :     Once & For all ;)


               www . Torrenting . Com 

(((((((((((((= Enjoy No RAR releases =))))))))))))))))))))


...................................NFO:....................................

.[IMG]http://img21.imageshack.us/img21/7185/intimebluray.jpg[/IMG]


[color=blue][size=5][b]In.Time.2011.BDRip.XVID.AC3.HQ.Hive-CM8[/b][/size][/color]


[b]Thx Hive

CM8 Doing it right the first time :D


Source: Bluray

Video: 720x304 @bitrate 1700 2pass
Audio: English DTS to AC3 5.1 @448
Sample: Yes, included
Subs: Yes, English in srt /subs[/b]
 
http://www.imdb.com/title/tt1637688/


General
Complete name                  : In.Time.2011.BDRip.XVID.AC3.HQ.Hive-CM8.avi
Format                         : AVI
Format/Info                    : Audio Video Interleave
File size                      : 1.65 GiB
Duration                       : 1h 49mn
Overall bit rate               : 2 157 Kbps
Writing application            : Nandub v1.0rc2
Writing library                : Nandub build 1853/release

Video
ID                             : 0
Format                         : MPEG-4 Visual
Format profile                 : Advanced Simple@L5
Format settings, BVOP          : 1
Format settings, QPel          : Yes
Format settings, GMC           : No warppoints
Format settings, Matrix        : Default (H.263)
Muxing mode                    : Packed bitstream
Codec ID                       : XVID
Codec ID/Hint                  : XviD
Duration                       : 1h 49mn
Bit rate                       : 1 700 Kbps
Width                          : 720 pixels
Height                         : 304 pixels
Display aspect ratio           : 2.35:1
Frame rate                     : 23.976 fps
Color space                    : YUV
Chroma subsampling             : 4:2:0
Bit depth                      : 8 bits
Scan type                      : Progressive
Compression mode               : Lossy
Bits/(Pixel*Frame)             : 0.324
Stream size                    : 1.30 GiB (79%)
Writing library                : XviD 1.2.1 (UTC 2008-12-04)

Audio
ID                             : 1
Format                         : AC-3
Format/Info                    : Audio Coding 3
Mode extension                 : CM (complete main)
Codec ID                       : 2000
Duration                       : 1h 49mn
Bit rate mode                  : Constant
Bit rate                       : 448 Kbps
Channel(s)                     : 6 channels
Channel positions              : Front: L C R, Side: L R, LFE
Sampling rate                  : 48.0 KHz
Bit depth                      : 16 bits
Compression mode               : Lossy
Stream size                    : 350 MiB (21%)
Alignment                      : Split accross interleaves
Interleave, duration           : 42 ms (1.00 video frame)
Interleave, preload duration   : 500 ms


Plot:
Will Salas must figure out a way to bring down a system where time has become
the currency enabling the wealthy to live forever while the poor, like Will,
have to beg, borrow, and steal enough minutes to make it through another day.


Cast:
Justin Timberlake   ...    Will Salas
Amanda Seyfried     ...    Sylvia Weis
Cillian Murphy      ...    Raymond Leon
Shyloh Oostwald     ...    Maya


[img]http://img36.imageshack.us/img36/7980/ininin.png[/img]
[img]http://img580.imageshack.us/img580/9060/inininiininnin.png[/img]
[img]http://img9.imageshack.us/img9/1505/inininiininniniinn.png[/img]
[img]http://img840.imageshack.us/img840/1773/inininiininninin.png[/img]
[img]http://img861.imageshack.us/img861/3853/inininiininnininiinn.png[/img]
[img]http://img580.imageshack.us/img580/7382/inininiinnin.png[/img]
[img]http://img834.imageshack.us/img834/5731/inininin.png[/img]
[img]http://img109.imageshack.us/img109/5091/ininininin.png[/img]
[img]http://img96.imageshack.us/img96/462/70372717.png[/img]
[img]http://img813.imageshack.us/img813/9980/inin.png[/img]



Greetz

ViSiON,SPK,SceneLovers,PRESTiGE,SANTi,3LT0N,YanKeeS,COPYxRIGHT,THC,T0XiC
D2U,LKRG,Feel-Free,FLAWL3SS,WBZ,BHRG,26K,NOVA,SeToNeUp,TED,MAGNET,jtr
Unevano,Rapeseed,SAFC,goldadvance,KaN1vE,Pinnz,Wayne
Mr Hive,and most P2P groups
Great Work Guys :D

LOOKING FOR ANYTHING YOU WANT TO LOOK AND SOUND BETTER

CM8@hushmail.com